<mxfile host="app.diagrams.net" modified="2024-03-21T20:14:12.382Z" agent="Mozilla/5.0 (Windows NT 10.0; Win64; x64) AppleWebKit/537.36 (KHTML, like Gecko) Chrome/123.0.0.0 Safari/537.36" etag="ow16gmPmhB6VGlPtcOvg" version="24.0.7" type="device">
  <diagram name="Page-1" id="jqLq2-6ZPnOcwyCZR-gv">
    <mxGraphModel dx="1395" dy="891" grid="1" gridSize="10" guides="1" tooltips="1" connect="1" arrows="1" fold="1" page="1" pageScale="1" pageWidth="850" pageHeight="1100" math="0" shadow="0">
      <root>
        <mxCell id="0" />
        <mxCell id="1" parent="0" />
        <mxCell id="Nb1hBGF-NMoUB1KHvelU-2" style="rounded=0;orthogonalLoop=1;jettySize=auto;html=1;endArrow=none;endFill=0;exitX=0.25;exitY=0;exitDx=0;exitDy=0;entryX=0.5;entryY=1;entryDx=0;entryDy=0;" parent="1" source="Nb1hBGF-NMoUB1KHvelU-13" target="Nb1hBGF-NMoUB1KHvelU-5" edge="1">
          <mxGeometry relative="1" as="geometry">
            <mxPoint x="160" y="40" as="targetPoint" />
            <mxPoint x="275" y="80" as="sourcePoint" />
          </mxGeometry>
        </mxCell>
        <mxCell id="Nb1hBGF-NMoUB1KHvelU-3" style="edgeStyle=none;rounded=0;orthogonalLoop=1;jettySize=auto;html=1;strokeColor=default;align=center;verticalAlign=middle;fontFamily=Helvetica;fontSize=11;fontColor=default;labelBackgroundColor=default;endArrow=none;endFill=0;entryX=0.5;entryY=1;entryDx=0;entryDy=0;exitX=0.25;exitY=0;exitDx=0;exitDy=0;" parent="1" source="Nb1hBGF-NMoUB1KHvelU-13" target="Nb1hBGF-NMoUB1KHvelU-7" edge="1">
          <mxGeometry relative="1" as="geometry">
            <mxPoint x="240" y="40" as="targetPoint" />
            <mxPoint x="275" y="80" as="sourcePoint" />
          </mxGeometry>
        </mxCell>
        <mxCell id="Nb1hBGF-NMoUB1KHvelU-4" style="edgeStyle=none;rounded=0;orthogonalLoop=1;jettySize=auto;html=1;exitX=0.75;exitY=0;exitDx=0;exitDy=0;strokeColor=default;align=center;verticalAlign=middle;fontFamily=Helvetica;fontSize=11;fontColor=default;labelBackgroundColor=default;endArrow=none;endFill=0;entryX=0.5;entryY=1;entryDx=0;entryDy=0;" parent="1" source="Nb1hBGF-NMoUB1KHvelU-13" target="Nb1hBGF-NMoUB1KHvelU-6" edge="1">
          <mxGeometry relative="1" as="geometry">
            <mxPoint x="400" y="40" as="targetPoint" />
            <mxPoint x="325" y="80" as="sourcePoint" />
          </mxGeometry>
        </mxCell>
        <mxCell id="Nb1hBGF-NMoUB1KHvelU-9" style="edgeStyle=none;rounded=0;orthogonalLoop=1;jettySize=auto;html=1;entryX=0.5;entryY=1;entryDx=0;entryDy=0;strokeColor=default;align=center;verticalAlign=middle;fontFamily=Helvetica;fontSize=11;fontColor=default;labelBackgroundColor=default;endArrow=none;endFill=0;exitX=0.75;exitY=0;exitDx=0;exitDy=0;" parent="1" source="Nb1hBGF-NMoUB1KHvelU-13" target="Nb1hBGF-NMoUB1KHvelU-8" edge="1">
          <mxGeometry relative="1" as="geometry">
            <mxPoint x="325" y="80" as="sourcePoint" />
          </mxGeometry>
        </mxCell>
        <mxCell id="Nb1hBGF-NMoUB1KHvelU-10" style="edgeStyle=none;rounded=0;orthogonalLoop=1;jettySize=auto;html=1;strokeColor=default;align=center;verticalAlign=middle;fontFamily=Helvetica;fontSize=11;fontColor=default;labelBackgroundColor=default;endArrow=none;endFill=0;" parent="1" edge="1">
          <mxGeometry relative="1" as="geometry">
            <mxPoint x="300" y="160" as="targetPoint" />
            <mxPoint x="300" y="120" as="sourcePoint" />
          </mxGeometry>
        </mxCell>
        <mxCell id="Nb1hBGF-NMoUB1KHvelU-5" value="user_id" style="ellipse;whiteSpace=wrap;html=1;align=center;fontStyle=4;fontFamily=Helvetica;fontSize=11;fontColor=default;labelBackgroundColor=default;" parent="1" vertex="1">
          <mxGeometry x="50" width="100" height="40" as="geometry" />
        </mxCell>
        <mxCell id="Nb1hBGF-NMoUB1KHvelU-6" value="user_type&amp;nbsp;" style="ellipse;whiteSpace=wrap;html=1;align=center;fontFamily=Helvetica;fontSize=11;fontColor=default;labelBackgroundColor=default;" parent="1" vertex="1">
          <mxGeometry x="450" width="100" height="40" as="geometry" />
        </mxCell>
        <mxCell id="Nb1hBGF-NMoUB1KHvelU-7" value="name" style="ellipse;whiteSpace=wrap;html=1;align=center;fontFamily=Helvetica;fontSize=11;fontColor=default;labelBackgroundColor=default;" parent="1" vertex="1">
          <mxGeometry x="180" width="100" height="40" as="geometry" />
        </mxCell>
        <mxCell id="Nb1hBGF-NMoUB1KHvelU-8" value="password" style="ellipse;whiteSpace=wrap;html=1;align=center;fontFamily=Helvetica;fontSize=11;fontColor=default;labelBackgroundColor=default;" parent="1" vertex="1">
          <mxGeometry x="320" width="100" height="40" as="geometry" />
        </mxCell>
        <mxCell id="Nb1hBGF-NMoUB1KHvelU-18" style="edgeStyle=none;rounded=0;orthogonalLoop=1;jettySize=auto;html=1;entryX=0.5;entryY=0;entryDx=0;entryDy=0;strokeColor=default;align=center;verticalAlign=middle;fontFamily=Helvetica;fontSize=11;fontColor=default;labelBackgroundColor=default;endArrow=none;endFill=0;" parent="1" source="Nb1hBGF-NMoUB1KHvelU-11" target="Nb1hBGF-NMoUB1KHvelU-16" edge="1">
          <mxGeometry relative="1" as="geometry" />
        </mxCell>
        <mxCell id="Nb1hBGF-NMoUB1KHvelU-19" style="edgeStyle=none;rounded=0;orthogonalLoop=1;jettySize=auto;html=1;entryX=0.5;entryY=0;entryDx=0;entryDy=0;strokeColor=default;align=center;verticalAlign=middle;fontFamily=Helvetica;fontSize=11;fontColor=default;labelBackgroundColor=default;endArrow=none;endFill=0;" parent="1" source="Nb1hBGF-NMoUB1KHvelU-11" target="Nb1hBGF-NMoUB1KHvelU-17" edge="1">
          <mxGeometry relative="1" as="geometry" />
        </mxCell>
        <mxCell id="Nb1hBGF-NMoUB1KHvelU-20" style="edgeStyle=none;rounded=0;orthogonalLoop=1;jettySize=auto;html=1;entryX=0.5;entryY=0;entryDx=0;entryDy=0;strokeColor=default;align=center;verticalAlign=middle;fontFamily=Helvetica;fontSize=11;fontColor=default;labelBackgroundColor=default;endArrow=none;endFill=0;" parent="1" source="Nb1hBGF-NMoUB1KHvelU-11" target="Nb1hBGF-NMoUB1KHvelU-15" edge="1">
          <mxGeometry relative="1" as="geometry" />
        </mxCell>
        <mxCell id="Nb1hBGF-NMoUB1KHvelU-11" value="d" style="ellipse;whiteSpace=wrap;html=1;aspect=fixed;fontFamily=Helvetica;fontSize=11;fontColor=default;labelBackgroundColor=default;" parent="1" vertex="1">
          <mxGeometry x="280" y="160" width="40" height="40" as="geometry" />
        </mxCell>
        <mxCell id="Nb1hBGF-NMoUB1KHvelU-12" value="&lt;span style=&quot;color: rgb(0, 0, 0); font-family: Helvetica; font-size: 11px; font-style: normal; font-variant-ligatures: normal; font-variant-caps: normal; font-weight: 400; letter-spacing: normal; orphans: 2; text-align: center; text-indent: 0px; text-transform: none; widows: 2; word-spacing: 0px; -webkit-text-stroke-width: 0px; white-space: normal; background-color: rgb(255, 255, 255); text-decoration-thickness: initial; text-decoration-style: initial; text-decoration-color: initial; display: inline !important; float: none;&quot;&gt;user_type&amp;nbsp;&lt;/span&gt;" style="text;whiteSpace=wrap;html=1;fontFamily=Helvetica;fontSize=11;fontColor=default;labelBackgroundColor=default;" parent="1" vertex="1">
          <mxGeometry x="310" y="130" width="60" height="20" as="geometry" />
        </mxCell>
        <mxCell id="Nb1hBGF-NMoUB1KHvelU-13" value="user" style="rounded=1;arcSize=10;whiteSpace=wrap;html=1;align=center;fontFamily=Helvetica;fontSize=11;fontColor=default;labelBackgroundColor=default;" parent="1" vertex="1">
          <mxGeometry x="250" y="80" width="100" height="40" as="geometry" />
        </mxCell>
        <mxCell id="Nb1hBGF-NMoUB1KHvelU-49" style="edgeStyle=none;rounded=0;orthogonalLoop=1;jettySize=auto;html=1;entryX=0.5;entryY=0;entryDx=0;entryDy=0;strokeColor=default;align=center;verticalAlign=middle;fontFamily=Helvetica;fontSize=11;fontColor=default;labelBackgroundColor=default;endArrow=none;endFill=0;" parent="1" source="Nb1hBGF-NMoUB1KHvelU-15" target="Nb1hBGF-NMoUB1KHvelU-47" edge="1">
          <mxGeometry relative="1" as="geometry" />
        </mxCell>
        <mxCell id="G8Z8dAApgUddCqCK2hk4-34" style="edgeStyle=orthogonalEdgeStyle;rounded=0;orthogonalLoop=1;jettySize=auto;html=1;entryX=0.5;entryY=0;entryDx=0;entryDy=0;endArrow=none;endFill=0;shape=link;" edge="1" parent="1" source="Nb1hBGF-NMoUB1KHvelU-15" target="Nb1hBGF-NMoUB1KHvelU-74">
          <mxGeometry relative="1" as="geometry" />
        </mxCell>
        <mxCell id="Nb1hBGF-NMoUB1KHvelU-15" value="admin" style="rounded=1;arcSize=10;whiteSpace=wrap;html=1;align=center;fontFamily=Helvetica;fontSize=11;fontColor=default;labelBackgroundColor=default;" parent="1" vertex="1">
          <mxGeometry x="-390" y="280" width="100" height="40" as="geometry" />
        </mxCell>
        <mxCell id="Nb1hBGF-NMoUB1KHvelU-31" style="edgeStyle=none;rounded=0;orthogonalLoop=1;jettySize=auto;html=1;strokeColor=default;align=center;verticalAlign=middle;fontFamily=Helvetica;fontSize=11;fontColor=default;labelBackgroundColor=default;endArrow=none;endFill=0;entryX=1;entryY=0.5;entryDx=0;entryDy=0;" parent="1" source="Nb1hBGF-NMoUB1KHvelU-16" target="Nb1hBGF-NMoUB1KHvelU-34" edge="1">
          <mxGeometry relative="1" as="geometry">
            <mxPoint x="240" y="360" as="targetPoint" />
          </mxGeometry>
        </mxCell>
        <mxCell id="Nb1hBGF-NMoUB1KHvelU-52" style="edgeStyle=none;rounded=0;orthogonalLoop=1;jettySize=auto;html=1;entryX=0.5;entryY=0;entryDx=0;entryDy=0;strokeColor=default;align=center;verticalAlign=middle;fontFamily=Helvetica;fontSize=11;fontColor=default;labelBackgroundColor=default;endArrow=none;endFill=0;" parent="1" source="Nb1hBGF-NMoUB1KHvelU-16" target="Nb1hBGF-NMoUB1KHvelU-51" edge="1">
          <mxGeometry relative="1" as="geometry" />
        </mxCell>
        <mxCell id="Nb1hBGF-NMoUB1KHvelU-16" value="trainer" style="rounded=1;arcSize=10;whiteSpace=wrap;html=1;align=center;fontFamily=Helvetica;fontSize=11;fontColor=default;labelBackgroundColor=default;" parent="1" vertex="1">
          <mxGeometry x="250" y="280" width="100" height="40" as="geometry" />
        </mxCell>
        <mxCell id="Nb1hBGF-NMoUB1KHvelU-36" style="edgeStyle=none;rounded=0;orthogonalLoop=1;jettySize=auto;html=1;entryX=0.5;entryY=1;entryDx=0;entryDy=0;strokeColor=default;align=center;verticalAlign=middle;fontFamily=Helvetica;fontSize=11;fontColor=default;labelBackgroundColor=default;endArrow=none;endFill=0;" parent="1" source="Nb1hBGF-NMoUB1KHvelU-17" target="Nb1hBGF-NMoUB1KHvelU-35" edge="1">
          <mxGeometry relative="1" as="geometry" />
        </mxCell>
        <mxCell id="Ia7JiegqEmYcbCCpeCiK-2" style="edgeStyle=orthogonalEdgeStyle;rounded=0;orthogonalLoop=1;jettySize=auto;html=1;entryX=0;entryY=0.5;entryDx=0;entryDy=0;endArrow=none;endFill=0;" parent="1" source="Nb1hBGF-NMoUB1KHvelU-17" target="Ia7JiegqEmYcbCCpeCiK-1" edge="1">
          <mxGeometry relative="1" as="geometry" />
        </mxCell>
        <mxCell id="G8Z8dAApgUddCqCK2hk4-2" value="" style="edgeStyle=orthogonalEdgeStyle;rounded=0;orthogonalLoop=1;jettySize=auto;html=1;endArrow=none;endFill=0;" edge="1" parent="1" source="Nb1hBGF-NMoUB1KHvelU-17" target="G8Z8dAApgUddCqCK2hk4-1">
          <mxGeometry relative="1" as="geometry" />
        </mxCell>
        <mxCell id="Nb1hBGF-NMoUB1KHvelU-17" value="member" style="rounded=1;arcSize=10;whiteSpace=wrap;html=1;align=center;fontFamily=Helvetica;fontSize=11;fontColor=default;labelBackgroundColor=default;" parent="1" vertex="1">
          <mxGeometry x="890" y="280" width="100" height="40" as="geometry" />
        </mxCell>
        <mxCell id="Nb1hBGF-NMoUB1KHvelU-23" value="&lt;font style=&quot;font-size: 20px;&quot;&gt;U&lt;/font&gt;" style="text;html=1;align=center;verticalAlign=middle;whiteSpace=wrap;rounded=0;fontFamily=Helvetica;fontSize=11;fontColor=default;labelBackgroundColor=none;rotation=80;" parent="1" vertex="1">
          <mxGeometry x="-58" y="217" width="60" height="30" as="geometry" />
        </mxCell>
        <mxCell id="Nb1hBGF-NMoUB1KHvelU-25" value="&lt;font style=&quot;font-size: 20px;&quot;&gt;U&lt;/font&gt;" style="text;html=1;align=center;verticalAlign=middle;whiteSpace=wrap;rounded=0;fontFamily=Helvetica;fontSize=11;fontColor=default;labelBackgroundColor=none;rotation=-80;" parent="1" vertex="1">
          <mxGeometry x="628" y="221" width="60" height="30" as="geometry" />
        </mxCell>
        <mxCell id="Nb1hBGF-NMoUB1KHvelU-26" value="&lt;font style=&quot;font-size: 20px;&quot;&gt;U&lt;/font&gt;" style="text;html=1;align=center;verticalAlign=middle;whiteSpace=wrap;rounded=0;fontFamily=Helvetica;fontSize=11;fontColor=default;labelBackgroundColor=none;rotation=0;" parent="1" vertex="1">
          <mxGeometry x="270" y="223" width="60" height="30" as="geometry" />
        </mxCell>
        <mxCell id="Nb1hBGF-NMoUB1KHvelU-28" value="&lt;span style=&quot;color: rgb(0, 0, 0); font-family: Helvetica; font-size: 11px; font-style: normal; font-variant-ligatures: normal; font-variant-caps: normal; font-weight: 400; letter-spacing: normal; orphans: 2; text-align: center; text-indent: 0px; text-transform: none; widows: 2; word-spacing: 0px; -webkit-text-stroke-width: 0px; white-space: normal; background-color: rgb(255, 255, 255); text-decoration-thickness: initial; text-decoration-style: initial; text-decoration-color: initial; display: inline !important; float: none;&quot;&gt;&#39;admin&#39;&lt;/span&gt;" style="text;whiteSpace=wrap;html=1;fontFamily=Helvetica;fontSize=11;fontColor=default;labelBackgroundColor=default;" parent="1" vertex="1">
          <mxGeometry y="183" width="60" height="30" as="geometry" />
        </mxCell>
        <mxCell id="Nb1hBGF-NMoUB1KHvelU-29" value="&lt;span style=&quot;color: rgb(0, 0, 0); font-family: Helvetica; font-size: 11px; font-style: normal; font-variant-ligatures: normal; font-variant-caps: normal; font-weight: 400; letter-spacing: normal; orphans: 2; text-align: center; text-indent: 0px; text-transform: none; widows: 2; word-spacing: 0px; -webkit-text-stroke-width: 0px; white-space: normal; background-color: rgb(255, 255, 255); text-decoration-thickness: initial; text-decoration-style: initial; text-decoration-color: initial; display: inline !important; float: none;&quot;&gt;&#39;trainer&#39;&lt;/span&gt;" style="text;whiteSpace=wrap;html=1;fontFamily=Helvetica;fontSize=11;fontColor=default;labelBackgroundColor=default;" parent="1" vertex="1">
          <mxGeometry x="320" y="200" width="60" height="40" as="geometry" />
        </mxCell>
        <mxCell id="Nb1hBGF-NMoUB1KHvelU-30" value="&lt;span style=&quot;color: rgb(0, 0, 0); font-family: Helvetica; font-size: 11px; font-style: normal; font-variant-ligatures: normal; font-variant-caps: normal; font-weight: 400; letter-spacing: normal; orphans: 2; text-align: center; text-indent: 0px; text-transform: none; widows: 2; word-spacing: 0px; -webkit-text-stroke-width: 0px; white-space: normal; background-color: rgb(255, 255, 255); text-decoration-thickness: initial; text-decoration-style: initial; text-decoration-color: initial; display: inline !important; float: none;&quot;&gt;&#39;member&#39;&lt;/span&gt;" style="text;whiteSpace=wrap;html=1;fontFamily=Helvetica;fontSize=11;fontColor=default;labelBackgroundColor=default;" parent="1" vertex="1">
          <mxGeometry x="520" y="183" width="70" height="40" as="geometry" />
        </mxCell>
        <mxCell id="Nb1hBGF-NMoUB1KHvelU-34" value="trainer_specialties" style="ellipse;shape=doubleEllipse;margin=3;whiteSpace=wrap;html=1;align=center;fontFamily=Helvetica;fontSize=11;fontColor=default;labelBackgroundColor=default;" parent="1" vertex="1">
          <mxGeometry x="110" y="280" width="100" height="40" as="geometry" />
        </mxCell>
        <mxCell id="Nb1hBGF-NMoUB1KHvelU-35" value="member_goal" style="ellipse;shape=doubleEllipse;margin=3;whiteSpace=wrap;html=1;align=center;fontFamily=Helvetica;fontSize=11;fontColor=default;labelBackgroundColor=default;" parent="1" vertex="1">
          <mxGeometry x="810" y="360" width="100" height="40" as="geometry" />
        </mxCell>
        <mxCell id="Nb1hBGF-NMoUB1KHvelU-45" style="edgeStyle=none;rounded=0;orthogonalLoop=1;jettySize=auto;html=1;entryX=0.5;entryY=1;entryDx=0;entryDy=0;strokeColor=default;align=center;verticalAlign=middle;fontFamily=Helvetica;fontSize=11;fontColor=default;labelBackgroundColor=default;endArrow=none;endFill=0;shape=link;" parent="1" source="Nb1hBGF-NMoUB1KHvelU-40" target="Nb1hBGF-NMoUB1KHvelU-44" edge="1">
          <mxGeometry relative="1" as="geometry" />
        </mxCell>
        <mxCell id="Nb1hBGF-NMoUB1KHvelU-46" style="edgeStyle=none;rounded=0;orthogonalLoop=1;jettySize=auto;html=1;entryX=0.5;entryY=0;entryDx=0;entryDy=0;strokeColor=default;align=center;verticalAlign=middle;fontFamily=Helvetica;fontSize=11;fontColor=default;labelBackgroundColor=default;endArrow=none;endFill=0;" parent="1" source="Nb1hBGF-NMoUB1KHvelU-40" target="Nb1hBGF-NMoUB1KHvelU-43" edge="1">
          <mxGeometry relative="1" as="geometry" />
        </mxCell>
        <mxCell id="Nb1hBGF-NMoUB1KHvelU-40" value="contains" style="shape=rhombus;perimeter=rhombusPerimeter;whiteSpace=wrap;html=1;align=center;fontFamily=Helvetica;fontSize=11;fontColor=default;labelBackgroundColor=default;" parent="1" vertex="1">
          <mxGeometry x="-400" y="510" width="120" height="60" as="geometry" />
        </mxCell>
        <mxCell id="G8Z8dAApgUddCqCK2hk4-38" style="edgeStyle=orthogonalEdgeStyle;rounded=0;orthogonalLoop=1;jettySize=auto;html=1;endArrow=none;endFill=0;" edge="1" parent="1" source="Nb1hBGF-NMoUB1KHvelU-43" target="G8Z8dAApgUddCqCK2hk4-37">
          <mxGeometry relative="1" as="geometry" />
        </mxCell>
        <mxCell id="Nb1hBGF-NMoUB1KHvelU-43" value="room" style="rounded=1;arcSize=10;whiteSpace=wrap;html=1;align=center;fontFamily=Helvetica;fontSize=11;fontColor=default;labelBackgroundColor=default;" parent="1" vertex="1">
          <mxGeometry x="-390" y="600" width="100" height="40" as="geometry" />
        </mxCell>
        <mxCell id="Nb1hBGF-NMoUB1KHvelU-48" style="edgeStyle=none;rounded=0;orthogonalLoop=1;jettySize=auto;html=1;entryX=0.5;entryY=1;entryDx=0;entryDy=0;strokeColor=default;align=center;verticalAlign=middle;fontFamily=Helvetica;fontSize=11;fontColor=default;labelBackgroundColor=default;endArrow=none;endFill=0;" parent="1" source="Nb1hBGF-NMoUB1KHvelU-44" target="Nb1hBGF-NMoUB1KHvelU-47" edge="1">
          <mxGeometry relative="1" as="geometry" />
        </mxCell>
        <mxCell id="G8Z8dAApgUddCqCK2hk4-43" style="rounded=0;orthogonalLoop=1;jettySize=auto;html=1;entryX=1;entryY=0.5;entryDx=0;entryDy=0;endArrow=none;endFill=0;exitX=0;exitY=0.5;exitDx=0;exitDy=0;" edge="1" parent="1" source="Nb1hBGF-NMoUB1KHvelU-44" target="G8Z8dAApgUddCqCK2hk4-40">
          <mxGeometry relative="1" as="geometry" />
        </mxCell>
        <mxCell id="G8Z8dAApgUddCqCK2hk4-44" style="rounded=0;orthogonalLoop=1;jettySize=auto;html=1;entryX=1;entryY=0.5;entryDx=0;entryDy=0;endArrow=none;endFill=0;exitX=0;exitY=0.5;exitDx=0;exitDy=0;" edge="1" parent="1" source="Nb1hBGF-NMoUB1KHvelU-44" target="G8Z8dAApgUddCqCK2hk4-41">
          <mxGeometry relative="1" as="geometry" />
        </mxCell>
        <mxCell id="Nb1hBGF-NMoUB1KHvelU-44" value="equipment" style="rounded=1;arcSize=10;whiteSpace=wrap;html=1;align=center;fontFamily=Helvetica;fontSize=11;fontColor=default;labelBackgroundColor=default;" parent="1" vertex="1">
          <mxGeometry x="-390" y="440" width="100" height="40" as="geometry" />
        </mxCell>
        <mxCell id="Nb1hBGF-NMoUB1KHvelU-47" value="last_maintained_by" style="shape=rhombus;perimeter=rhombusPerimeter;whiteSpace=wrap;html=1;align=center;fontFamily=Helvetica;fontSize=11;fontColor=default;labelBackgroundColor=default;" parent="1" vertex="1">
          <mxGeometry x="-400" y="350" width="120" height="60" as="geometry" />
        </mxCell>
        <mxCell id="Nb1hBGF-NMoUB1KHvelU-54" style="edgeStyle=none;rounded=0;orthogonalLoop=1;jettySize=auto;html=1;entryX=0.5;entryY=0;entryDx=0;entryDy=0;strokeColor=default;align=center;verticalAlign=middle;fontFamily=Helvetica;fontSize=11;fontColor=default;labelBackgroundColor=default;endArrow=none;endFill=0;shape=link;" parent="1" source="Nb1hBGF-NMoUB1KHvelU-51" target="Nb1hBGF-NMoUB1KHvelU-53" edge="1">
          <mxGeometry relative="1" as="geometry" />
        </mxCell>
        <mxCell id="Nb1hBGF-NMoUB1KHvelU-51" value="available at" style="shape=rhombus;perimeter=rhombusPerimeter;whiteSpace=wrap;html=1;align=center;fontFamily=Helvetica;fontSize=11;fontColor=default;labelBackgroundColor=default;" parent="1" vertex="1">
          <mxGeometry x="240" y="390" width="120" height="60" as="geometry" />
        </mxCell>
        <mxCell id="Nb1hBGF-NMoUB1KHvelU-59" style="edgeStyle=none;rounded=0;orthogonalLoop=1;jettySize=auto;html=1;entryX=0.5;entryY=0;entryDx=0;entryDy=0;strokeColor=default;align=center;verticalAlign=middle;fontFamily=Helvetica;fontSize=11;fontColor=default;labelBackgroundColor=default;endArrow=none;endFill=0;" parent="1" source="Nb1hBGF-NMoUB1KHvelU-53" target="Nb1hBGF-NMoUB1KHvelU-57" edge="1">
          <mxGeometry relative="1" as="geometry" />
        </mxCell>
        <mxCell id="Nb1hBGF-NMoUB1KHvelU-60" style="edgeStyle=none;rounded=0;orthogonalLoop=1;jettySize=auto;html=1;entryX=0.5;entryY=0;entryDx=0;entryDy=0;strokeColor=default;align=center;verticalAlign=middle;fontFamily=Helvetica;fontSize=11;fontColor=default;labelBackgroundColor=default;endArrow=none;endFill=0;" parent="1" source="Nb1hBGF-NMoUB1KHvelU-53" target="Nb1hBGF-NMoUB1KHvelU-56" edge="1">
          <mxGeometry relative="1" as="geometry" />
        </mxCell>
        <mxCell id="Nb1hBGF-NMoUB1KHvelU-61" style="edgeStyle=none;rounded=0;orthogonalLoop=1;jettySize=auto;html=1;entryX=0.5;entryY=0;entryDx=0;entryDy=0;strokeColor=default;align=center;verticalAlign=middle;fontFamily=Helvetica;fontSize=11;fontColor=default;labelBackgroundColor=default;endArrow=none;endFill=0;" parent="1" source="Nb1hBGF-NMoUB1KHvelU-53" target="Nb1hBGF-NMoUB1KHvelU-58" edge="1">
          <mxGeometry relative="1" as="geometry" />
        </mxCell>
        <mxCell id="G8Z8dAApgUddCqCK2hk4-73" style="rounded=0;orthogonalLoop=1;jettySize=auto;html=1;endArrow=none;endFill=0;" edge="1" parent="1" source="Nb1hBGF-NMoUB1KHvelU-53" target="G8Z8dAApgUddCqCK2hk4-72">
          <mxGeometry relative="1" as="geometry" />
        </mxCell>
        <mxCell id="Nb1hBGF-NMoUB1KHvelU-53" value="trainer_avaliability" style="rounded=1;arcSize=10;whiteSpace=wrap;html=1;align=center;fontFamily=Helvetica;fontSize=11;fontColor=default;labelBackgroundColor=default;" parent="1" vertex="1">
          <mxGeometry x="250" y="520" width="100" height="40" as="geometry" />
        </mxCell>
        <mxCell id="Nb1hBGF-NMoUB1KHvelU-56" value="is_booked" style="ellipse;whiteSpace=wrap;html=1;align=center;fontFamily=Helvetica;fontSize=11;fontColor=default;labelBackgroundColor=default;" parent="1" vertex="1">
          <mxGeometry x="195" y="600" width="100" height="40" as="geometry" />
        </mxCell>
        <mxCell id="Nb1hBGF-NMoUB1KHvelU-57" value="availability_id&amp;nbsp;" style="ellipse;whiteSpace=wrap;html=1;align=center;fontStyle=4;fontFamily=Helvetica;fontSize=11;fontColor=default;labelBackgroundColor=default;" parent="1" vertex="1">
          <mxGeometry x="90" y="600" width="100" height="40" as="geometry" />
        </mxCell>
        <mxCell id="Nb1hBGF-NMoUB1KHvelU-58" value="end_time" style="ellipse;whiteSpace=wrap;html=1;align=center;fontFamily=Helvetica;fontSize=11;fontColor=default;labelBackgroundColor=default;" parent="1" vertex="1">
          <mxGeometry x="410" y="600" width="100" height="40" as="geometry" />
        </mxCell>
        <mxCell id="Nb1hBGF-NMoUB1KHvelU-66" value="" style="edgeStyle=none;rounded=0;orthogonalLoop=1;jettySize=auto;html=1;strokeColor=default;align=center;verticalAlign=middle;fontFamily=Helvetica;fontSize=11;fontColor=default;labelBackgroundColor=default;endArrow=none;endFill=0;" parent="1" source="Nb1hBGF-NMoUB1KHvelU-63" target="Nb1hBGF-NMoUB1KHvelU-53" edge="1">
          <mxGeometry relative="1" as="geometry" />
        </mxCell>
        <mxCell id="Nb1hBGF-NMoUB1KHvelU-69" value="" style="edgeStyle=none;rounded=0;orthogonalLoop=1;jettySize=auto;html=1;strokeColor=default;align=center;verticalAlign=middle;fontFamily=Helvetica;fontSize=11;fontColor=default;labelBackgroundColor=default;endArrow=none;endFill=0;shape=link;" parent="1" source="Nb1hBGF-NMoUB1KHvelU-63" target="Nb1hBGF-NMoUB1KHvelU-68" edge="1">
          <mxGeometry relative="1" as="geometry" />
        </mxCell>
        <mxCell id="Nb1hBGF-NMoUB1KHvelU-63" value="is held during" style="shape=rhombus;perimeter=rhombusPerimeter;whiteSpace=wrap;html=1;align=center;fontFamily=Helvetica;fontSize=11;fontColor=default;labelBackgroundColor=default;" parent="1" vertex="1">
          <mxGeometry x="400" y="510" width="120" height="60" as="geometry" />
        </mxCell>
        <mxCell id="Nb1hBGF-NMoUB1KHvelU-65" value="" style="edgeStyle=none;rounded=0;orthogonalLoop=1;jettySize=auto;html=1;strokeColor=default;align=center;verticalAlign=middle;fontFamily=Helvetica;fontSize=11;fontColor=default;labelBackgroundColor=default;endArrow=none;endFill=0;" parent="1" source="Nb1hBGF-NMoUB1KHvelU-64" target="Nb1hBGF-NMoUB1KHvelU-53" edge="1">
          <mxGeometry relative="1" as="geometry" />
        </mxCell>
        <mxCell id="Nb1hBGF-NMoUB1KHvelU-64" value="is held during" style="shape=rhombus;perimeter=rhombusPerimeter;whiteSpace=wrap;html=1;align=center;fontFamily=Helvetica;fontSize=11;fontColor=default;labelBackgroundColor=default;" parent="1" vertex="1">
          <mxGeometry x="80" y="510" width="120" height="60" as="geometry" />
        </mxCell>
        <mxCell id="Nb1hBGF-NMoUB1KHvelU-70" value="" style="edgeStyle=none;rounded=0;orthogonalLoop=1;jettySize=auto;html=1;strokeColor=default;align=center;verticalAlign=middle;fontFamily=Helvetica;fontSize=11;fontColor=default;labelBackgroundColor=default;endArrow=none;endFill=0;shape=link;" parent="1" source="Nb1hBGF-NMoUB1KHvelU-67" target="Nb1hBGF-NMoUB1KHvelU-64" edge="1">
          <mxGeometry relative="1" as="geometry" />
        </mxCell>
        <mxCell id="Nb1hBGF-NMoUB1KHvelU-72" style="edgeStyle=none;rounded=0;orthogonalLoop=1;jettySize=auto;html=1;entryX=0.5;entryY=0;entryDx=0;entryDy=0;strokeColor=default;align=center;verticalAlign=middle;fontFamily=Helvetica;fontSize=11;fontColor=default;labelBackgroundColor=default;endArrow=none;endFill=0;" parent="1" source="Nb1hBGF-NMoUB1KHvelU-67" target="Nb1hBGF-NMoUB1KHvelU-71" edge="1">
          <mxGeometry relative="1" as="geometry" />
        </mxCell>
        <mxCell id="G8Z8dAApgUddCqCK2hk4-30" style="rounded=0;orthogonalLoop=1;jettySize=auto;html=1;entryX=0.5;entryY=1;entryDx=0;entryDy=0;endArrow=none;endFill=0;" edge="1" parent="1" source="Nb1hBGF-NMoUB1KHvelU-67" target="G8Z8dAApgUddCqCK2hk4-29">
          <mxGeometry relative="1" as="geometry" />
        </mxCell>
        <mxCell id="G8Z8dAApgUddCqCK2hk4-48" style="rounded=0;orthogonalLoop=1;jettySize=auto;html=1;entryX=0.5;entryY=1;entryDx=0;entryDy=0;endArrow=none;endFill=0;" edge="1" parent="1" source="Nb1hBGF-NMoUB1KHvelU-67" target="G8Z8dAApgUddCqCK2hk4-47">
          <mxGeometry relative="1" as="geometry" />
        </mxCell>
        <mxCell id="Nb1hBGF-NMoUB1KHvelU-67" value="group_class" style="rounded=1;arcSize=10;whiteSpace=wrap;html=1;align=center;fontFamily=Helvetica;fontSize=11;fontColor=default;labelBackgroundColor=default;" parent="1" vertex="1">
          <mxGeometry x="-70" y="520" width="100" height="40" as="geometry" />
        </mxCell>
        <mxCell id="Nb1hBGF-NMoUB1KHvelU-83" value="" style="edgeStyle=none;rounded=0;orthogonalLoop=1;jettySize=auto;html=1;strokeColor=default;align=center;verticalAlign=middle;fontFamily=Helvetica;fontSize=11;fontColor=default;labelBackgroundColor=default;endArrow=none;endFill=0;shape=link;" parent="1" source="Nb1hBGF-NMoUB1KHvelU-68" target="Nb1hBGF-NMoUB1KHvelU-82" edge="1">
          <mxGeometry relative="1" as="geometry" />
        </mxCell>
        <mxCell id="G8Z8dAApgUddCqCK2hk4-28" value="" style="rounded=0;orthogonalLoop=1;jettySize=auto;html=1;endArrow=none;endFill=0;entryX=0.5;entryY=1;entryDx=0;entryDy=0;" edge="1" parent="1" source="Nb1hBGF-NMoUB1KHvelU-68" target="G8Z8dAApgUddCqCK2hk4-27">
          <mxGeometry relative="1" as="geometry" />
        </mxCell>
        <mxCell id="G8Z8dAApgUddCqCK2hk4-46" style="rounded=0;orthogonalLoop=1;jettySize=auto;html=1;entryX=0.5;entryY=1;entryDx=0;entryDy=0;endArrow=none;endFill=0;" edge="1" parent="1" source="Nb1hBGF-NMoUB1KHvelU-68" target="G8Z8dAApgUddCqCK2hk4-45">
          <mxGeometry relative="1" as="geometry" />
        </mxCell>
        <mxCell id="Nb1hBGF-NMoUB1KHvelU-68" value="personal_session" style="rounded=1;arcSize=10;whiteSpace=wrap;html=1;align=center;fontFamily=Helvetica;fontSize=11;fontColor=default;labelBackgroundColor=default;" parent="1" vertex="1">
          <mxGeometry x="570" y="520" width="100" height="40" as="geometry" />
        </mxCell>
        <mxCell id="Nb1hBGF-NMoUB1KHvelU-73" style="edgeStyle=orthogonalEdgeStyle;rounded=0;orthogonalLoop=1;jettySize=auto;html=1;entryX=0.5;entryY=1;entryDx=0;entryDy=0;strokeColor=default;align=center;verticalAlign=middle;fontFamily=Helvetica;fontSize=11;fontColor=default;labelBackgroundColor=default;endArrow=none;endFill=0;" parent="1" source="Nb1hBGF-NMoUB1KHvelU-71" target="Nb1hBGF-NMoUB1KHvelU-17" edge="1">
          <mxGeometry relative="1" as="geometry" />
        </mxCell>
        <mxCell id="Nb1hBGF-NMoUB1KHvelU-71" value="class_member" style="shape=rhombus;perimeter=rhombusPerimeter;whiteSpace=wrap;html=1;align=center;fontFamily=Helvetica;fontSize=11;fontColor=default;labelBackgroundColor=default;" parent="1" vertex="1">
          <mxGeometry x="-80" y="670" width="120" height="60" as="geometry" />
        </mxCell>
        <mxCell id="Nb1hBGF-NMoUB1KHvelU-75" value="" style="edgeStyle=none;rounded=0;orthogonalLoop=1;jettySize=auto;html=1;strokeColor=default;align=center;verticalAlign=middle;fontFamily=Helvetica;fontSize=11;fontColor=default;labelBackgroundColor=default;endArrow=none;endFill=0;" parent="1" source="Nb1hBGF-NMoUB1KHvelU-74" target="Nb1hBGF-NMoUB1KHvelU-67" edge="1">
          <mxGeometry relative="1" as="geometry" />
        </mxCell>
        <mxCell id="Nb1hBGF-NMoUB1KHvelU-77" style="edgeStyle=orthogonalEdgeStyle;rounded=0;orthogonalLoop=1;jettySize=auto;html=1;entryX=1;entryY=0.5;entryDx=0;entryDy=0;strokeColor=default;align=center;verticalAlign=middle;fontFamily=Helvetica;fontSize=11;fontColor=default;labelBackgroundColor=default;endArrow=none;endFill=0;exitX=0;exitY=0.5;exitDx=0;exitDy=0;" parent="1" source="Nb1hBGF-NMoUB1KHvelU-74" target="Nb1hBGF-NMoUB1KHvelU-43" edge="1">
          <mxGeometry relative="1" as="geometry">
            <Array as="points">
              <mxPoint x="-260" y="540" />
              <mxPoint x="-260" y="620" />
            </Array>
          </mxGeometry>
        </mxCell>
        <mxCell id="G8Z8dAApgUddCqCK2hk4-36" value="" style="edgeStyle=orthogonalEdgeStyle;rounded=0;orthogonalLoop=1;jettySize=auto;html=1;endArrow=none;endFill=0;" edge="1" parent="1" source="Nb1hBGF-NMoUB1KHvelU-74" target="G8Z8dAApgUddCqCK2hk4-35">
          <mxGeometry relative="1" as="geometry" />
        </mxCell>
        <mxCell id="Nb1hBGF-NMoUB1KHvelU-74" value="room_bookings" style="shape=rhombus;perimeter=rhombusPerimeter;whiteSpace=wrap;html=1;align=center;fontFamily=Helvetica;fontSize=11;fontColor=default;labelBackgroundColor=default;" parent="1" vertex="1">
          <mxGeometry x="-230" y="510" width="120" height="60" as="geometry" />
        </mxCell>
        <mxCell id="Nb1hBGF-NMoUB1KHvelU-84" style="edgeStyle=orthogonalEdgeStyle;rounded=0;orthogonalLoop=1;jettySize=auto;html=1;entryX=0;entryY=0.5;entryDx=0;entryDy=0;strokeColor=default;align=center;verticalAlign=middle;fontFamily=Helvetica;fontSize=11;fontColor=default;labelBackgroundColor=default;endArrow=none;endFill=0;" parent="1" source="Nb1hBGF-NMoUB1KHvelU-82" target="Nb1hBGF-NMoUB1KHvelU-17" edge="1">
          <mxGeometry relative="1" as="geometry">
            <Array as="points">
              <mxPoint x="780" y="300" />
            </Array>
          </mxGeometry>
        </mxCell>
        <mxCell id="Nb1hBGF-NMoUB1KHvelU-82" value="participates in" style="shape=rhombus;perimeter=rhombusPerimeter;whiteSpace=wrap;html=1;align=center;fontFamily=Helvetica;fontSize=11;fontColor=default;labelBackgroundColor=default;" parent="1" vertex="1">
          <mxGeometry x="720" y="510" width="120" height="60" as="geometry" />
        </mxCell>
        <mxCell id="Ia7JiegqEmYcbCCpeCiK-4" style="edgeStyle=orthogonalEdgeStyle;rounded=0;orthogonalLoop=1;jettySize=auto;html=1;entryX=0.5;entryY=0;entryDx=0;entryDy=0;endArrow=none;endFill=0;shape=link;" parent="1" source="Ia7JiegqEmYcbCCpeCiK-1" target="Ia7JiegqEmYcbCCpeCiK-3" edge="1">
          <mxGeometry relative="1" as="geometry" />
        </mxCell>
        <mxCell id="Ia7JiegqEmYcbCCpeCiK-1" value="paid" style="shape=rhombus;perimeter=rhombusPerimeter;whiteSpace=wrap;html=1;align=center;fontFamily=Helvetica;fontSize=11;fontColor=default;labelBackgroundColor=default;" parent="1" vertex="1">
          <mxGeometry x="1060" y="270" width="120" height="60" as="geometry" />
        </mxCell>
        <mxCell id="G8Z8dAApgUddCqCK2hk4-19" style="rounded=0;orthogonalLoop=1;jettySize=auto;html=1;entryX=0.5;entryY=0;entryDx=0;entryDy=0;endArrow=none;endFill=0;" edge="1" parent="1" source="Ia7JiegqEmYcbCCpeCiK-3" target="Ia7JiegqEmYcbCCpeCiK-6">
          <mxGeometry relative="1" as="geometry" />
        </mxCell>
        <mxCell id="G8Z8dAApgUddCqCK2hk4-20" style="rounded=0;orthogonalLoop=1;jettySize=auto;html=1;entryX=0.5;entryY=0;entryDx=0;entryDy=0;endArrow=none;endFill=0;" edge="1" parent="1" source="Ia7JiegqEmYcbCCpeCiK-3" target="Ia7JiegqEmYcbCCpeCiK-5">
          <mxGeometry relative="1" as="geometry" />
        </mxCell>
        <mxCell id="G8Z8dAApgUddCqCK2hk4-25" style="rounded=0;orthogonalLoop=1;jettySize=auto;html=1;entryX=0.5;entryY=0;entryDx=0;entryDy=0;endArrow=none;endFill=0;" edge="1" parent="1" source="Ia7JiegqEmYcbCCpeCiK-3" target="G8Z8dAApgUddCqCK2hk4-21">
          <mxGeometry relative="1" as="geometry" />
        </mxCell>
        <mxCell id="G8Z8dAApgUddCqCK2hk4-26" style="rounded=0;orthogonalLoop=1;jettySize=auto;html=1;entryX=0.5;entryY=0;entryDx=0;entryDy=0;endArrow=none;endFill=0;" edge="1" parent="1" source="Ia7JiegqEmYcbCCpeCiK-3" target="G8Z8dAApgUddCqCK2hk4-24">
          <mxGeometry relative="1" as="geometry" />
        </mxCell>
        <mxCell id="Ia7JiegqEmYcbCCpeCiK-3" value="payment" style="rounded=1;arcSize=10;whiteSpace=wrap;html=1;align=center;fontFamily=Helvetica;fontSize=11;fontColor=default;labelBackgroundColor=default;" parent="1" vertex="1">
          <mxGeometry x="1070" y="360" width="100" height="40" as="geometry" />
        </mxCell>
        <mxCell id="Ia7JiegqEmYcbCCpeCiK-5" value="&lt;u&gt;payment_id&lt;/u&gt;" style="ellipse;whiteSpace=wrap;html=1;align=center;fontFamily=Helvetica;fontSize=11;fontColor=default;labelBackgroundColor=default;" parent="1" vertex="1">
          <mxGeometry x="970" y="440" width="100" height="40" as="geometry" />
        </mxCell>
        <mxCell id="Ia7JiegqEmYcbCCpeCiK-6" value="amount" style="ellipse;whiteSpace=wrap;html=1;align=center;fontFamily=Helvetica;fontSize=11;fontColor=default;labelBackgroundColor=default;" parent="1" vertex="1">
          <mxGeometry x="1010" y="520" width="100" height="40" as="geometry" />
        </mxCell>
        <mxCell id="G8Z8dAApgUddCqCK2hk4-4" value="" style="edgeStyle=orthogonalEdgeStyle;rounded=0;orthogonalLoop=1;jettySize=auto;html=1;endArrow=none;endFill=0;entryX=0.5;entryY=1;entryDx=0;entryDy=0;shape=link;" edge="1" parent="1" source="G8Z8dAApgUddCqCK2hk4-1" target="G8Z8dAApgUddCqCK2hk4-5">
          <mxGeometry relative="1" as="geometry">
            <mxPoint x="940" y="160" as="targetPoint" />
          </mxGeometry>
        </mxCell>
        <mxCell id="G8Z8dAApgUddCqCK2hk4-1" value="has" style="shape=rhombus;double=1;perimeter=rhombusPerimeter;whiteSpace=wrap;html=1;align=center;" vertex="1" parent="1">
          <mxGeometry x="880" y="190" width="120" height="60" as="geometry" />
        </mxCell>
        <mxCell id="G8Z8dAApgUddCqCK2hk4-10" style="rounded=0;orthogonalLoop=1;jettySize=auto;html=1;exitX=0.5;exitY=0;exitDx=0;exitDy=0;entryX=0.5;entryY=1;entryDx=0;entryDy=0;endArrow=none;endFill=0;" edge="1" parent="1" source="G8Z8dAApgUddCqCK2hk4-5" target="G8Z8dAApgUddCqCK2hk4-6">
          <mxGeometry relative="1" as="geometry" />
        </mxCell>
        <mxCell id="G8Z8dAApgUddCqCK2hk4-11" style="edgeStyle=orthogonalEdgeStyle;rounded=0;orthogonalLoop=1;jettySize=auto;html=1;entryX=0.5;entryY=1;entryDx=0;entryDy=0;endArrow=none;endFill=0;" edge="1" parent="1" source="G8Z8dAApgUddCqCK2hk4-5" target="G8Z8dAApgUddCqCK2hk4-7">
          <mxGeometry relative="1" as="geometry" />
        </mxCell>
        <mxCell id="G8Z8dAApgUddCqCK2hk4-12" style="rounded=0;orthogonalLoop=1;jettySize=auto;html=1;entryX=0.5;entryY=1;entryDx=0;entryDy=0;endArrow=none;endFill=0;" edge="1" parent="1" source="G8Z8dAApgUddCqCK2hk4-5" target="G8Z8dAApgUddCqCK2hk4-8">
          <mxGeometry relative="1" as="geometry" />
        </mxCell>
        <mxCell id="G8Z8dAApgUddCqCK2hk4-13" style="edgeStyle=orthogonalEdgeStyle;rounded=0;orthogonalLoop=1;jettySize=auto;html=1;entryX=0;entryY=0.5;entryDx=0;entryDy=0;endArrow=none;endFill=0;" edge="1" parent="1" source="G8Z8dAApgUddCqCK2hk4-5" target="G8Z8dAApgUddCqCK2hk4-9">
          <mxGeometry relative="1" as="geometry" />
        </mxCell>
        <mxCell id="G8Z8dAApgUddCqCK2hk4-5" value="health_metric" style="shape=ext;margin=3;double=1;whiteSpace=wrap;html=1;align=center;rounded=1;" vertex="1" parent="1">
          <mxGeometry x="890" y="120" width="100" height="40" as="geometry" />
        </mxCell>
        <mxCell id="G8Z8dAApgUddCqCK2hk4-6" value="&lt;u&gt;metric_timestamp&lt;/u&gt;" style="ellipse;whiteSpace=wrap;html=1;align=center;fontFamily=Helvetica;fontSize=11;fontColor=default;labelBackgroundColor=default;" vertex="1" parent="1">
          <mxGeometry x="760" y="40" width="100" height="40" as="geometry" />
        </mxCell>
        <mxCell id="G8Z8dAApgUddCqCK2hk4-7" value="weight" style="ellipse;whiteSpace=wrap;html=1;align=center;fontFamily=Helvetica;fontSize=11;fontColor=default;labelBackgroundColor=default;" vertex="1" parent="1">
          <mxGeometry x="890" y="40" width="100" height="40" as="geometry" />
        </mxCell>
        <mxCell id="G8Z8dAApgUddCqCK2hk4-8" value="body_fat_percentage" style="ellipse;whiteSpace=wrap;html=1;align=center;fontFamily=Helvetica;fontSize=11;fontColor=default;labelBackgroundColor=default;" vertex="1" parent="1">
          <mxGeometry x="1020" y="40" width="100" height="40" as="geometry" />
        </mxCell>
        <mxCell id="G8Z8dAApgUddCqCK2hk4-17" style="edgeStyle=orthogonalEdgeStyle;rounded=0;orthogonalLoop=1;jettySize=auto;html=1;entryX=0.5;entryY=1;entryDx=0;entryDy=0;endArrow=none;endFill=0;" edge="1" parent="1" source="G8Z8dAApgUddCqCK2hk4-9" target="G8Z8dAApgUddCqCK2hk4-15">
          <mxGeometry relative="1" as="geometry" />
        </mxCell>
        <mxCell id="G8Z8dAApgUddCqCK2hk4-18" style="edgeStyle=orthogonalEdgeStyle;rounded=0;orthogonalLoop=1;jettySize=auto;html=1;entryX=0.5;entryY=0;entryDx=0;entryDy=0;endArrow=none;endFill=0;" edge="1" parent="1" source="G8Z8dAApgUddCqCK2hk4-9" target="G8Z8dAApgUddCqCK2hk4-16">
          <mxGeometry relative="1" as="geometry" />
        </mxCell>
        <mxCell id="G8Z8dAApgUddCqCK2hk4-9" value="blood_pressure" style="ellipse;whiteSpace=wrap;html=1;align=center;fontFamily=Helvetica;fontSize=11;fontColor=default;labelBackgroundColor=default;" vertex="1" parent="1">
          <mxGeometry x="1070" y="120" width="100" height="40" as="geometry" />
        </mxCell>
        <mxCell id="G8Z8dAApgUddCqCK2hk4-15" value="systolic_pressure" style="ellipse;whiteSpace=wrap;html=1;align=center;fontFamily=Helvetica;fontSize=11;fontColor=default;labelBackgroundColor=default;" vertex="1" parent="1">
          <mxGeometry x="1200" y="80" width="100" height="40" as="geometry" />
        </mxCell>
        <mxCell id="G8Z8dAApgUddCqCK2hk4-16" value="diastolic_pressure" style="ellipse;whiteSpace=wrap;html=1;align=center;fontFamily=Helvetica;fontSize=11;fontColor=default;labelBackgroundColor=default;" vertex="1" parent="1">
          <mxGeometry x="1200" y="160" width="100" height="40" as="geometry" />
        </mxCell>
        <mxCell id="G8Z8dAApgUddCqCK2hk4-21" value="payment_timestamp" style="ellipse;whiteSpace=wrap;html=1;align=center;fontFamily=Helvetica;fontSize=11;fontColor=default;labelBackgroundColor=default;" vertex="1" parent="1">
          <mxGeometry x="1130" y="520" width="100" height="40" as="geometry" />
        </mxCell>
        <mxCell id="G8Z8dAApgUddCqCK2hk4-24" value="for_service" style="ellipse;whiteSpace=wrap;html=1;align=center;fontFamily=Helvetica;fontSize=11;fontColor=default;labelBackgroundColor=default;" vertex="1" parent="1">
          <mxGeometry x="1170" y="440" width="100" height="40" as="geometry" />
        </mxCell>
        <mxCell id="G8Z8dAApgUddCqCK2hk4-27" value="completed" style="ellipse;whiteSpace=wrap;html=1;align=center;fontFamily=Helvetica;fontSize=11;fontColor=default;labelBackgroundColor=default;" vertex="1" parent="1">
          <mxGeometry x="628" y="440" width="100" height="40" as="geometry" />
        </mxCell>
        <mxCell id="G8Z8dAApgUddCqCK2hk4-29" value="completed" style="ellipse;whiteSpace=wrap;html=1;align=center;fontFamily=Helvetica;fontSize=11;fontColor=default;labelBackgroundColor=default;" vertex="1" parent="1">
          <mxGeometry x="-10" y="440" width="100" height="40" as="geometry" />
        </mxCell>
        <mxCell id="G8Z8dAApgUddCqCK2hk4-35" value="booking_id" style="ellipse;whiteSpace=wrap;html=1;align=center;fontStyle=4;fontFamily=Helvetica;fontSize=11;fontColor=default;labelBackgroundColor=default;" vertex="1" parent="1">
          <mxGeometry x="-220" y="600" width="100" height="40" as="geometry" />
        </mxCell>
        <mxCell id="G8Z8dAApgUddCqCK2hk4-37" value="description" style="ellipse;whiteSpace=wrap;html=1;align=center;fontFamily=Helvetica;fontSize=11;fontColor=default;labelBackgroundColor=default;" vertex="1" parent="1">
          <mxGeometry x="-390" y="680" width="100" height="40" as="geometry" />
        </mxCell>
        <mxCell id="G8Z8dAApgUddCqCK2hk4-40" value="&lt;u&gt;equipment_name&lt;/u&gt;" style="ellipse;whiteSpace=wrap;html=1;align=center;fontFamily=Helvetica;fontSize=11;fontColor=default;labelBackgroundColor=default;" vertex="1" parent="1">
          <mxGeometry x="-530" y="400" width="100" height="40" as="geometry" />
        </mxCell>
        <mxCell id="G8Z8dAApgUddCqCK2hk4-41" value="needs_maintenance" style="ellipse;whiteSpace=wrap;html=1;align=center;fontFamily=Helvetica;fontSize=11;fontColor=default;labelBackgroundColor=default;" vertex="1" parent="1">
          <mxGeometry x="-530" y="480" width="100" height="40" as="geometry" />
        </mxCell>
        <mxCell id="G8Z8dAApgUddCqCK2hk4-45" value="&lt;u&gt;session_id&lt;/u&gt;" style="ellipse;whiteSpace=wrap;html=1;align=center;fontFamily=Helvetica;fontSize=11;fontColor=default;labelBackgroundColor=default;" vertex="1" parent="1">
          <mxGeometry x="505" y="440" width="100" height="40" as="geometry" />
        </mxCell>
        <mxCell id="G8Z8dAApgUddCqCK2hk4-47" value="&lt;u&gt;class_id&lt;/u&gt;" style="ellipse;whiteSpace=wrap;html=1;align=center;fontFamily=Helvetica;fontSize=11;fontColor=default;labelBackgroundColor=default;" vertex="1" parent="1">
          <mxGeometry x="-130" y="440" width="100" height="40" as="geometry" />
        </mxCell>
        <mxCell id="G8Z8dAApgUddCqCK2hk4-49" value="N" style="text;html=1;align=center;verticalAlign=middle;whiteSpace=wrap;rounded=0;" vertex="1" parent="1">
          <mxGeometry x="300" y="490" width="40" height="30" as="geometry" />
        </mxCell>
        <mxCell id="G8Z8dAApgUddCqCK2hk4-50" value="1" style="text;html=1;align=center;verticalAlign=middle;whiteSpace=wrap;rounded=0;" vertex="1" parent="1">
          <mxGeometry x="300" y="320" width="40" height="30" as="geometry" />
        </mxCell>
        <mxCell id="G8Z8dAApgUddCqCK2hk4-52" value="Single line indicates partial participation&lt;div&gt;Double line indicates total participation&lt;/div&gt;" style="text;html=1;align=center;verticalAlign=middle;whiteSpace=wrap;rounded=0;" vertex="1" parent="1">
          <mxGeometry x="-200" y="40" width="240" height="30" as="geometry" />
        </mxCell>
        <mxCell id="G8Z8dAApgUddCqCK2hk4-53" value="1" style="text;html=1;align=center;verticalAlign=middle;whiteSpace=wrap;rounded=0;" vertex="1" parent="1">
          <mxGeometry x="350" y="510" width="40" height="30" as="geometry" />
        </mxCell>
        <mxCell id="G8Z8dAApgUddCqCK2hk4-54" value="1" style="text;html=1;align=center;verticalAlign=middle;whiteSpace=wrap;rounded=0;" vertex="1" parent="1">
          <mxGeometry x="530" y="510" width="40" height="30" as="geometry" />
        </mxCell>
        <mxCell id="G8Z8dAApgUddCqCK2hk4-57" value="1" style="text;html=1;align=center;verticalAlign=middle;whiteSpace=wrap;rounded=0;" vertex="1" parent="1">
          <mxGeometry x="210" y="510" width="40" height="30" as="geometry" />
        </mxCell>
        <mxCell id="G8Z8dAApgUddCqCK2hk4-58" value="1" style="text;html=1;align=center;verticalAlign=middle;whiteSpace=wrap;rounded=0;" vertex="1" parent="1">
          <mxGeometry x="30" y="510" width="40" height="30" as="geometry" />
        </mxCell>
        <mxCell id="G8Z8dAApgUddCqCK2hk4-59" value="N" style="text;html=1;align=center;verticalAlign=middle;whiteSpace=wrap;rounded=0;" vertex="1" parent="1">
          <mxGeometry x="-110" y="510" width="40" height="30" as="geometry" />
        </mxCell>
        <mxCell id="G8Z8dAApgUddCqCK2hk4-60" value="1" style="text;html=1;align=center;verticalAlign=middle;whiteSpace=wrap;rounded=0;" vertex="1" parent="1">
          <mxGeometry x="-290" y="620" width="40" height="30" as="geometry" />
        </mxCell>
        <mxCell id="G8Z8dAApgUddCqCK2hk4-61" value="1" style="text;html=1;align=center;verticalAlign=middle;whiteSpace=wrap;rounded=0;" vertex="1" parent="1">
          <mxGeometry x="-290" y="300" width="40" height="30" as="geometry" />
        </mxCell>
        <mxCell id="G8Z8dAApgUddCqCK2hk4-62" value="1" style="text;html=1;align=center;verticalAlign=middle;whiteSpace=wrap;rounded=0;" vertex="1" parent="1">
          <mxGeometry x="-340" y="570" width="40" height="30" as="geometry" />
        </mxCell>
        <mxCell id="G8Z8dAApgUddCqCK2hk4-63" value="N" style="text;html=1;align=center;verticalAlign=middle;whiteSpace=wrap;rounded=0;" vertex="1" parent="1">
          <mxGeometry x="-340" y="480" width="40" height="30" as="geometry" />
        </mxCell>
        <mxCell id="G8Z8dAApgUddCqCK2hk4-64" value="1" style="text;html=1;align=center;verticalAlign=middle;whiteSpace=wrap;rounded=0;" vertex="1" parent="1">
          <mxGeometry x="-340" y="320" width="40" height="30" as="geometry" />
        </mxCell>
        <mxCell id="G8Z8dAApgUddCqCK2hk4-65" value="N" style="text;html=1;align=center;verticalAlign=middle;whiteSpace=wrap;rounded=0;" vertex="1" parent="1">
          <mxGeometry x="-340" y="410" width="40" height="30" as="geometry" />
        </mxCell>
        <mxCell id="G8Z8dAApgUddCqCK2hk4-66" value="1" style="text;html=1;align=center;verticalAlign=middle;whiteSpace=wrap;rounded=0;" vertex="1" parent="1">
          <mxGeometry x="850" y="300" width="40" height="30" as="geometry" />
        </mxCell>
        <mxCell id="G8Z8dAApgUddCqCK2hk4-67" value="N" style="text;html=1;align=center;verticalAlign=middle;whiteSpace=wrap;rounded=0;" vertex="1" parent="1">
          <mxGeometry x="670" y="510" width="40" height="30" as="geometry" />
        </mxCell>
        <mxCell id="G8Z8dAApgUddCqCK2hk4-68" value="N" style="text;html=1;align=center;verticalAlign=middle;whiteSpace=wrap;rounded=0;" vertex="1" parent="1">
          <mxGeometry x="940" y="160" width="40" height="30" as="geometry" />
        </mxCell>
        <mxCell id="G8Z8dAApgUddCqCK2hk4-69" value="1" style="text;html=1;align=center;verticalAlign=middle;whiteSpace=wrap;rounded=0;" vertex="1" parent="1">
          <mxGeometry x="940" y="251" width="40" height="30" as="geometry" />
        </mxCell>
        <mxCell id="G8Z8dAApgUddCqCK2hk4-70" value="1" style="text;html=1;align=center;verticalAlign=middle;whiteSpace=wrap;rounded=0;" vertex="1" parent="1">
          <mxGeometry x="990" y="270" width="40" height="30" as="geometry" />
        </mxCell>
        <mxCell id="G8Z8dAApgUddCqCK2hk4-71" value="N" style="text;html=1;align=center;verticalAlign=middle;whiteSpace=wrap;rounded=0;" vertex="1" parent="1">
          <mxGeometry x="1120" y="330" width="40" height="30" as="geometry" />
        </mxCell>
        <mxCell id="G8Z8dAApgUddCqCK2hk4-72" value="begin_time" style="ellipse;whiteSpace=wrap;html=1;align=center;fontFamily=Helvetica;fontSize=11;fontColor=default;labelBackgroundColor=default;" vertex="1" parent="1">
          <mxGeometry x="305" y="600" width="100" height="40" as="geometry" />
        </mxCell>
      </root>
    </mxGraphModel>
  </diagram>
</mxfile>
